<?xml version="1.0" encoding="UTF-8"?>
<svg version="1.1" xmlns="http://www.w3.org/2000/svg" width="783" height="239">
<path d="M0 0 C1.01629881 -0.00583219 2.03259763 -0.01166439 3.07969338 -0.01767331 C4.19437066 -0.01389399 5.30904794 -0.01011467 6.45750332 -0.00622082 C8.2358001 -0.01195914 8.2358001 -0.01195914 10.05002207 -0.01781338 C13.34172562 -0.02635699 16.63320623 -0.02590586 19.92490351 -0.02163279 C23.47435636 -0.01916975 27.02378276 -0.02817436 30.57322598 -0.03567028 C37.52669941 -0.04843019 44.48013425 -0.05020944 51.43361742 -0.04787002 C57.08329151 -0.04608847 62.73295385 -0.04783298 68.38262653 -0.05209446 C69.18607316 -0.05268965 69.9895198 -0.05328484 70.81731329 -0.05389806 C72.44937997 -0.05510978 74.08144664 -0.05632392 75.71351331 -0.05754044 C91.02380181 -0.06842054 106.33406829 -0.06625101 121.64435803 -0.06015559 C135.66153412 -0.0549836 149.67864077 -0.06624846 163.69580311 -0.08525381 C178.07987867 -0.10460759 192.46392133 -0.1128927 206.84801 -0.10913056 C214.92716471 -0.10721508 223.00626028 -0.10973992 231.0854044 -0.1238451 C237.96161412 -0.13572843 244.83772829 -0.13719807 251.71393926 -0.12505493 C255.22418774 -0.11914525 258.73426118 -0.11812407 262.24449825 -0.13005733 C266.04434758 -0.14282546 269.84392842 -0.13250172 273.64378262 -0.11974621 C274.76069062 -0.12712049 275.87759862 -0.13449478 277.02835232 -0.14209253 C278.04204339 -0.13488598 279.05573445 -0.12767944 280.10014343 -0.12025452 C281.416609 -0.12033704 281.416609 -0.12033704 282.75966984 -0.12042123 C285.47879585 0.33722198 286.34300777 1.07645701 287.98715115 3.25447559 C289.35327464 8.14975145 288.8899094 12.33033969 287.98715115 17.25447559 C285.98715115 19.25447559 285.98715115 19.25447559 283.90491378 19.50287259 C283.03687311 19.50211315 282.16883243 19.5013537 281.2744875 19.50057125 C280.27425426 19.50455335 279.27402103 19.50853544 278.2434777 19.51263821 C277.13649217 19.50681253 276.02950664 19.50098685 274.8889761 19.49498463 C273.71937127 19.49669348 272.54976645 19.49840233 271.34471905 19.50016296 C268.08832889 19.50289628 264.83209634 19.49661299 261.57572484 19.48660684 C258.06788804 19.4779955 254.56005902 19.48089085 251.05221462 19.48241138 C244.97134425 19.48346171 238.8905167 19.47716975 232.8096571 19.46593571 C224.01768692 19.44970358 215.22573752 19.44447505 206.43375398 19.44195972 C192.17045405 19.43757902 177.90717695 19.42425975 163.64388943 19.4053545 C149.78581768 19.3870054 135.92775212 19.37284415 122.06967068 19.36433887 C121.21591539 19.36381343 120.3621601 19.36328798 119.48253344 19.36274661 C115.19963037 19.3601366 110.91672725 19.35760917 106.63382411 19.3551228 C71.08491618 19.33437862 35.53603729 19.2985937 -0.01284885 19.25447559 C-0.01284885 32.12447559 -0.01284885 44.99447559 -0.01284885 58.25447559 C5.33547146 58.18486622 5.33547146 58.18486622 10.79183865 58.11385059 C14.27033981 58.08259679 17.74882494 58.05834209 21.22738552 58.03474903 C23.63273095 58.01471526 26.03802818 57.98748037 28.44320583 57.95271778 C31.91370493 57.90383751 35.38355641 57.88142354 38.85433865 57.86385059 C40.45026348 57.83288288 40.45026348 57.83288288 42.07842922 57.80128956 C49.66457369 57.79904321 57.01298434 58.79723048 62.93194485 63.94630909 C69.57940473 70.87356728 69.29547257 79.16598898 69.2879324 88.25056934 C69.29221752 89.3980817 69.29650265 90.54559406 69.30091763 91.72787952 C69.30664458 94.14762686 69.30717328 96.5673914 69.30282497 98.98714161 C69.29966469 102.67616271 69.32314698 106.36438159 69.34847927 110.05330372 C69.35075248 112.41072459 69.35145566 114.7681476 69.3504324 117.12556934 C69.35964214 118.22162998 69.36885189 119.31769062 69.37834072 120.44696522 C69.33531913 127.6156418 68.71304678 133.54674077 64.33871365 139.49666309 C63.76894802 140.03549122 63.1991824 140.57431934 62.61215115 141.12947559 C62.04754177 141.68377247 61.4829324 142.23806934 60.90121365 142.80916309 C56.47522492 146.15123621 52.37842308 146.50630131 46.93368435 146.51326466 C46.24366329 146.51676929 45.55364223 146.52027393 44.84271145 146.52388477 C42.57434783 146.53264896 40.30629888 146.52687387 38.0379324 146.52010059 C36.45803168 146.52144831 34.87813137 146.52338974 33.29823208 146.52589893 C29.99389589 146.52884259 26.68966807 146.52457527 23.38534451 146.51521778 C19.14484397 146.50379556 14.90459584 146.51040489 10.66410446 146.52236271 C7.40509533 146.52957792 4.14614642 146.52729545 0.88713551 146.52210712 C-0.67701147 146.52077114 -2.24116389 146.52241658 -3.80530453 146.52706623 C-5.98620652 146.53212903 -8.1666946 146.52442641 -10.34756565 146.51326466 C-11.58935078 146.51167347 -12.8311359 146.51008228 -14.11055088 146.50844288 C-17.01284885 146.25447559 -17.01284885 146.25447559 -19.01284885 144.25447559 C-19.21133956 141.70912419 -19.2913666 139.29730801 -19.26284885 136.75447559 C-19.27058323 136.06482716 -19.2783176 135.37517872 -19.28628635 134.66463184 C-19.26618178 129.50780852 -19.26618178 129.50780852 -17.01284885 127.25447559 C-14.26672459 127.01396656 -14.26672459 127.01396656 -10.72720432 127.02742481 C-10.08317661 127.02713276 -9.4391489 127.02684071 -8.7756052 127.0265398 C-6.64361258 127.02793486 -4.51196803 127.04350385 -2.38003635 127.05916309 C-0.90316045 127.06289261 0.57371793 127.06573987 2.05059719 127.06773853 C5.94032513 127.07537986 9.82990403 127.09503252 13.71957302 127.11714649 C18.38514533 127.14118847 23.05076743 127.15038354 27.71638393 127.16205311 C34.80674337 127.18145675 41.89677571 127.21977555 48.98715115 127.25447559 C48.98715115 111.41447559 48.98715115 95.57447559 48.98715115 79.25447559 C46.51372728 78.01776366 44.84852522 78.11670139 42.08187771 78.09676075 C40.54953487 78.08136753 40.54953487 78.08136753 38.98623562 78.06566334 C37.87794399 78.05836201 36.76965237 78.05106068 35.62777615 78.04353809 C33.2918317 78.01546472 30.95589429 77.98680023 28.61996365 77.95760059 C24.92888527 77.91635949 21.2379377 77.87948121 17.54672146 77.85310841 C13.99012808 77.82547883 10.43413712 77.77959927 6.87777615 77.73103809 C5.22748409 77.72615879 5.22748409 77.72615879 3.54385281 77.72118092 C-3.17661424 77.61352517 -7.98056271 77.07626532 -13.0948801 72.31697559 C-13.66593479 71.63635059 -14.23698948 70.95572559 -14.82534885 70.25447559 C-15.40929417 69.57385059 -15.99323948 68.89322559 -16.5948801 68.19197559 C-18.90853102 65.03062337 -19.14550957 62.32272776 -19.18985081 58.52693653 C-19.20268604 57.56874012 -19.21552128 56.61054371 -19.22874546 55.62331104 C-19.23613239 54.58893909 -19.24351933 53.55456715 -19.2511301 52.48885059 C-19.25920185 51.42209095 -19.2672736 50.35533131 -19.27558994 49.25624561 C-19.28942592 46.99672029 -19.30015025 44.73717412 -19.30801487 42.47762012 C-19.32521279 39.03173893 -19.36910271 35.58682087 -19.41323948 32.14119434 C-19.42336796 29.94458681 -19.43188357 27.74797112 -19.4386301 25.55135059 C-19.45613819 24.52507557 -19.47364628 23.49880054 -19.49168491 22.44142628 C-19.47027437 15.33666421 -18.35974619 10.91096093 -13.45034885 5.54744434 C-8.86854514 2.02393768 -5.83155166 0.00575828 0 0 Z " fill="#F68700" transform="translate(41.01284885406494,38.745524406433105)"/>
<path d="M0 0 C0.96929148 -0.00467997 1.93858297 -0.00935994 2.93724692 -0.01418173 C6.16384241 -0.02608519 9.39000952 -0.01669278 12.61660767 -0.00723267 C14.93816372 -0.01130026 17.25971784 -0.0166432 19.58126831 -0.02316284 C25.8700409 -0.03681518 32.15866551 -0.03154751 38.44744062 -0.02202559 C45.02837996 -0.01442371 51.60930674 -0.02147557 58.19024658 -0.02618408 C69.94138794 -0.03258578 81.69246705 -0.02267737 93.44359763 -0.00740607 C104.10123577 0.00601492 114.75877595 0.00365198 125.41641235 -0.01016235 C137.80109745 -0.0262078 150.18572011 -0.03219923 162.57041419 -0.02332556 C169.12366122 -0.01864231 175.67684073 -0.01804263 182.23008347 -0.02793503 C188.38445791 -0.03657717 194.53864651 -0.03063324 200.69300079 -0.01325226 C202.95577561 -0.00927371 205.21856598 -0.01044468 207.48133469 -0.01704025 C210.56068686 -0.02519118 213.63943661 -0.01501263 216.71875 0 C217.6221362 -0.00669217 218.52552239 -0.01338433 219.45628393 -0.02027929 C220.27878814 -0.01245605 221.10129235 -0.0046328 221.94872093 0.00342751 C222.6596151 0.00391456 223.37050927 0.00440162 224.10294569 0.00490344 C226.56403549 0.49837041 227.44234282 1.43048362 228.97842407 3.38095093 C230.34454757 8.27622679 229.88118232 12.45681502 228.97842407 17.38095093 C226.30014141 20.05923359 224.26941784 19.62430045 220.62838727 19.64663827 C219.72850589 19.64197506 218.82862451 19.63731185 217.901474 19.63250732 C216.94915286 19.63547746 215.99683172 19.6384476 215.01565236 19.64150774 C211.80437103 19.6491848 208.59327061 19.64263854 205.38198853 19.63632202 C203.08766047 19.63907022 200.79333338 19.64274907 198.49900818 19.64729309 C193.54768401 19.6554227 188.59640505 19.65756911 183.64507484 19.65534592 C175.81720391 19.6525203 167.9894238 19.66683722 160.16157532 19.68432617 C149.18654754 19.70754368 138.211526 19.72665064 127.23648071 19.73934937 C126.53964403 19.74015974 125.84280735 19.74097011 125.12485441 19.74180503 C115.24298803 19.75301867 105.36112728 19.75830561 95.4792554 19.76119216 C94.78393468 19.76139615 94.08861395 19.76160013 93.3722229 19.7618103 C92.6777492 19.76201024 91.98327551 19.76221017 91.26775716 19.76241617 C79.68159869 19.76615084 68.09553052 19.78548071 56.50941437 19.81690466 C48.72709984 19.83714575 40.9450486 19.8394752 33.16271842 19.82862449 C28.31892413 19.82601915 23.47528338 19.84001337 18.63152885 19.85870552 C16.38495569 19.86403271 14.13835434 19.86252177 11.8917923 19.85367012 C8.8242578 19.84255882 5.75776329 19.85597005 2.69029236 19.87542725 C1.80156459 19.86630259 0.91283682 19.85717793 -0.0028221 19.84777677 C-5.83150225 19.91969502 -9.24308562 20.98761863 -14.02157593 24.38095093 C-18.32604792 29.93145429 -19.17219978 34.12759072 -19.18270874 40.97006226 C-19.18767365 41.74114822 -19.19263855 42.51223419 -19.19775391 43.3066864 C-19.212364 45.85879407 -19.21917586 48.41083955 -19.22470093 50.96298218 C-19.23045365 52.73794049 -19.23621137 54.51289878 -19.24197388 56.28785706 C-19.25248081 60.01102996 -19.25832538 63.7341813 -19.2618103 67.45736694 C-19.26729214 72.22219821 -19.29131477 76.9867433 -19.31978226 81.75148487 C-19.33843041 85.41897914 -19.34361541 89.08640481 -19.34514618 92.75394249 C-19.34816869 94.51017508 -19.35618367 96.26640657 -19.36933136 98.02259254 C-19.38643638 100.48316673 -19.38450086 102.94304606 -19.37802124 105.40365601 C-19.38723602 106.1254303 -19.39645081 106.84720459 -19.40594482 107.59085083 C-19.36058343 113.10545978 -18.07630383 117.19808855 -14.26766968 121.24423218 C-13.37241577 121.96159546 -13.37241577 121.96159546 -12.45907593 122.69345093 C-11.85966187 123.18458374 -11.2602478 123.67571655 -10.64266968 124.18173218 C-7.63836054 126.40419701 -5.66776666 126.5128324 -1.97689819 126.53866577 C-0.39999962 126.55405899 -0.39999962 126.55405899 1.20875549 126.56976318 C2.91812035 126.58071518 2.91812035 126.58071518 4.66201782 126.59188843 C7.05720702 126.61995047 9.45238923 126.64861488 11.8475647 126.67782593 C15.63768366 126.71915926 19.42767109 126.75603239 23.21792603 126.78231812 C26.86623344 126.8098364 30.51393987 126.85570312 34.16201782 126.90438843 C35.29957016 126.9076413 36.4371225 126.91089417 37.60914612 126.91424561 C39.19077293 126.93909531 39.19077293 126.93909531 40.80435181 126.96444702 C42.1976194 126.9765773 42.1976194 126.9765773 43.61903381 126.98895264 C45.97842407 127.38095093 45.97842407 127.38095093 47.77909851 128.70166016 C49.74596457 131.45565801 49.3354411 134.13206917 49.29092407 137.44345093 C49.28705688 138.69255249 49.2831897 139.94165405 49.27920532 141.22860718 C48.97842407 144.38095093 48.97842407 144.38095093 46.97842407 146.38095093 C44.64126587 146.64837646 44.64126587 146.64837646 41.67764282 146.67147827 C40.56888794 146.68423798 39.46013306 146.69699768 38.31777954 146.71014404 C37.11266724 146.71236969 35.90755493 146.71459534 34.66592407 146.71688843 C33.42729614 146.72354523 32.18866821 146.73020203 30.9125061 146.73706055 C28.28280348 146.74720754 25.65351373 146.75274004 23.02383423 146.7515564 C20.34094083 146.7513945 17.65873485 146.76516602 14.97598267 146.79257202 C11.10158556 146.82940726 7.22797942 146.83903931 3.35342407 146.84188843 C2.16450562 146.85625946 0.97558716 146.87063049 -0.24935913 146.88543701 C-11.15958629 146.82623498 -19.96311127 143.88654795 -28.02157593 136.38095093 C-39.19659753 124.68031481 -39.63048352 112.18995829 -39.55282593 96.88095093 C-39.55552624 94.99488119 -39.55941313 93.10881282 -39.56442261 91.2227478 C-39.57029231 87.28576292 -39.56183677 83.34914309 -39.5430603 79.41220093 C-39.52027232 74.3923333 -39.53340905 69.37332142 -39.55735016 64.35348511 C-39.57187684 60.46356888 -39.56717082 56.57385202 -39.55683899 52.68392944 C-39.55419064 50.83415625 -39.55737402 48.98436433 -39.5667572 47.13461304 C-39.62371104 32.75503899 -38.43004116 21.26159506 -28.02157593 10.38095093 C-19.61448757 2.48105437 -11.40143686 -0.08573049 0 0 Z " fill="#8333B9" transform="translate(395.0215759277344,38.619049072265625)"/>
<path d="M0 0 C1.99007662 -0.00435359 3.97999444 -0.04133033 5.96972656 -0.07861328 C14.19265068 -0.10333149 20.76886 0.91898019 28.25878906 4.37060547 C28.91878906 3.05060547 29.57878906 1.73060547 30.25878906 0.37060547 C32.88406095 0.31678441 35.50823619 0.27702234 38.13378906 0.24560547 C38.88015625 0.22884766 39.62652344 0.21208984 40.39550781 0.19482422 C42.35073368 0.17720957 44.30620928 0.26740358 46.25878906 0.37060547 C48.74848153 2.86029793 48.51519241 3.61739246 48.53726196 7.05288696 C48.54842545 8.04009232 48.55958893 9.02729767 48.5710907 10.04441833 C48.57325089 11.13126419 48.57541107 12.21811005 48.57763672 13.33789062 C48.58768234 14.47935043 48.59772797 15.62081024 48.608078 16.79685974 C48.63906491 20.58445717 48.65598824 24.37198344 48.67285156 28.15966797 C48.69155073 30.77998473 48.71112318 33.4002954 48.73153687 36.02059937 C48.77837007 42.22183395 48.81509209 48.42308583 48.84820974 54.62440717 C48.88639914 61.68362652 48.93581756 68.74275316 48.9861939 75.80189443 C49.08958121 90.32472677 49.17881944 104.84762555 49.25878906 119.37060547 C50.13921875 118.76990234 51.01964844 118.16919922 51.92675781 117.55029297 C53.09930467 116.78110223 54.27251721 116.01292558 55.44628906 115.24560547 C56.02443359 114.84728516 56.60257812 114.44896484 57.19824219 114.03857422 C58.92675781 112.92529297 58.92675781 112.92529297 62.25878906 111.37060547 C65.18457031 112.12841797 65.18457031 112.12841797 67.25878906 113.37060547 C68.38796867 119.68344583 69.49714284 126.20081607 67.25878906 132.37060547 C62.78347922 137.46074988 56.45994827 140.41924367 50.42651367 143.30541992 C48.10972409 144.38559079 48.10972409 144.38559079 45.56347656 146.16357422 C42.46928836 147.78408974 40.04234078 147.73455777 36.57128906 147.68310547 C34.86392578 147.67730469 34.86392578 147.67730469 33.12207031 147.67138672 C30.25878906 147.37060547 30.25878906 147.37060547 28.25878906 145.37060547 C28.01828003 143.49765015 28.01828003 143.49765015 28.03173828 141.19628906 C28.03188934 140.33554779 28.03204041 139.47480652 28.03219604 138.58798218 C28.04251862 137.65773224 28.05284119 136.7274823 28.06347656 135.76904297 C28.06630646 134.81744293 28.06913635 133.8658429 28.072052 132.88540649 C28.08326917 129.83867955 28.10837643 126.79224393 28.13378906 123.74560547 C28.14381688 121.68310971 28.15294307 119.62060935 28.16113281 117.55810547 C28.18321352 112.49549279 28.21775376 107.43309857 28.25878906 102.37060547 C27.65599121 102.67264893 27.05319336 102.97469238 26.43212891 103.28588867 C19.23951449 106.77231096 12.22679485 106.98643255 4.38183594 106.89208984 C2.26153246 106.87063323 0.14461529 106.89198314 -1.97558594 106.91748047 C-14.40021389 106.94538035 -22.47635603 104.43204793 -31.47949219 95.79638672 C-39.85908999 86.80894244 -43.20715503 77.51624131 -43.20996094 65.32373047 C-43.21757446 64.39067078 -43.22518799 63.45761108 -43.23303223 62.49627686 C-43.24377359 60.53318945 -43.2467108 58.57004518 -43.2421875 56.60693359 C-43.24121785 53.64174441 -43.28285339 50.67917055 -43.32714844 47.71435547 C-43.42163895 32.96756183 -41.93099501 21.55514401 -31.13964844 10.53076172 C-21.50220767 1.85078656 -12.82512374 -0.00313266 0 0 Z M-18.55371094 26.12060547 C-19.11703125 26.75482422 -19.68035156 27.38904297 -20.26074219 28.04248047 C-24.69653162 35.01802268 -24.08111452 43.1882306 -24.05688477 51.13110352 C-24.05372372 53.29933944 -24.0772347 55.46620937 -24.10253906 57.63427734 C-24.14611088 66.80944557 -23.84651652 74.56155629 -17.36621094 81.74560547 C-16.80160156 82.39271484 -16.23699219 83.03982422 -15.65527344 83.70654297 C-10.42803029 88.25104416 -4.33797615 87.70458563 2.19628906 87.68310547 C3.17275391 87.69921875 4.14921875 87.71533203 5.15527344 87.73193359 C11.73597226 87.73639508 16.2352262 87.07680963 21.30566406 82.53857422 C21.86769531 81.88501953 22.42972656 81.23146484 23.00878906 80.55810547 C23.86730469 79.589375 23.86730469 79.589375 24.74316406 78.60107422 C28.11027185 73.64587177 28.57571731 68.50995197 28.59472656 62.66357422 C28.60138336 61.93874344 28.60804016 61.21391266 28.61489868 60.46711731 C28.62497692 58.94009926 28.6297172 57.4130376 28.62939453 55.88598633 C28.63375761 53.57476525 28.67009624 51.2654726 28.70800781 48.95458984 C28.77951025 39.7974532 28.37265986 32.25582704 22.25878906 24.99560547 C21.59878906 24.45935547 20.93878906 23.92310547 20.25878906 23.37060547 C19.59878906 22.81373047 18.93878906 22.25685547 18.25878906 21.68310547 C13.51308357 18.56873624 7.91934432 19.15235633 2.44628906 19.12060547 C1.56908203 19.09998047 0.691875 19.07935547 -0.21191406 19.05810547 C-7.69070451 19.01335579 -13.46109614 20.1573563 -18.55371094 26.12060547 Z " fill="#F78800" transform="translate(280.7412109375,78.62939453125)"/>
<path d="M0 0 C0.73734375 0.00773437 1.4746875 0.01546875 2.234375 0.0234375 C3.34039063 0.01183594 3.34039063 0.01183594 4.46875 0 C9.9810554 0.0201179 9.9810554 0.0201179 12.234375 2.2734375 C12.48605728 4.73161316 12.48605728 4.73161316 12.48834229 7.89135742 C12.49398193 9.08602631 12.49962158 10.28069519 12.50543213 11.51156616 C12.50138367 12.82903839 12.49733521 14.14651062 12.49316406 15.50390625 C12.49587295 16.89995507 12.49943331 18.29600245 12.50378418 19.69204712 C12.51292265 23.489498 12.50935797 27.28684053 12.50302601 31.08429337 C12.49797353 35.05253651 12.50265536 39.02077018 12.50579834 42.98901367 C12.50944019 49.65382559 12.50463317 56.31859323 12.49511719 62.98339844 C12.4842322 70.696246 12.48775763 78.40898784 12.49877 86.12183285 C12.50783666 92.73587164 12.5091312 99.34987855 12.50389266 105.96392155 C12.50076953 109.91772762 12.50037298 113.87148396 12.50696564 117.82528687 C12.51272948 121.54184307 12.50875999 125.25826254 12.49717712 128.97480392 C12.4932572 130.9949703 12.49922437 133.0151482 12.50543213 135.03530884 C12.49979248 136.22997772 12.49415283 137.42464661 12.48834229 138.65551758 C12.48758823 139.69823318 12.48683418 140.74094879 12.48605728 141.81526184 C12.234375 144.2734375 12.234375 144.2734375 10.234375 146.2734375 C7.48951907 146.41851445 4.84956957 146.45996173 2.109375 146.3984375 C1.35527344 146.38941406 0.60117187 146.38039062 -0.17578125 146.37109375 C-2.03919754 146.3475062 -3.90245093 146.31163469 -5.765625 146.2734375 C-6.425625 144.9534375 -7.085625 143.6334375 -7.765625 142.2734375 C-8.38566406 142.55638672 -9.00570312 142.83933594 -9.64453125 143.13085938 C-17.76007341 146.4916625 -25.05266966 146.87799296 -33.765625 146.7734375 C-35.0546875 146.78890625 -36.34375 146.804375 -37.671875 146.8203125 C-49.93662115 146.77045581 -58.66092299 144.30960485 -67.5390625 135.69921875 C-75.88130729 126.61056258 -79.24004912 117.41642763 -79.19921875 105.15625 C-79.2044606 104.21844696 -79.20970245 103.28064392 -79.21510315 102.31442261 C-79.22148754 100.34292586 -79.22023318 98.37139083 -79.21166992 96.39990234 C-79.20316656 93.41303407 -79.23196145 90.428086 -79.26367188 87.44140625 C-79.3199229 72.25656631 -77.41355502 61.47875363 -66.765625 50.14453125 C-57.12331383 40.79493309 -46.81538289 39.61684041 -33.765625 39.7734375 C-31.83203125 39.75023438 -31.83203125 39.75023438 -29.859375 39.7265625 C-21.73183968 39.75960126 -15.17449033 40.89246881 -7.765625 44.2734375 C-7.77609863 43.01160645 -7.78657227 41.74977539 -7.79736328 40.44970703 C-7.83349399 35.77948836 -7.85650016 31.10928211 -7.87548828 26.43896484 C-7.88556171 24.41550623 -7.89922095 22.39206222 -7.91650391 20.36865234 C-7.94069347 17.46448161 -7.95209449 14.56050289 -7.9609375 11.65625 C-7.97126007 10.74787384 -7.98158264 9.83949768 -7.99221802 8.90359497 C-7.99236908 8.06287445 -7.99252014 7.22215393 -7.99267578 6.35595703 C-7.997117 5.61427277 -8.00155823 4.8725885 -8.00613403 4.10842896 C-7.39797452 -0.53159433 -3.8430778 0.01402583 0 0 Z M-54.515625 66.0234375 C-55.08796875 66.65765625 -55.6603125 67.291875 -56.25 67.9453125 C-60.75923232 74.87186524 -60.10549155 83.10320203 -60.08129883 91.03393555 C-60.07813778 93.20217147 -60.10164876 95.3690414 -60.12695312 97.53710938 C-60.17052494 106.7122776 -59.87093059 114.46438832 -53.390625 121.6484375 C-52.82601562 122.29554688 -52.26140625 122.94265625 -51.6796875 123.609375 C-46.45244435 128.15387619 -40.36239021 127.60741766 -33.828125 127.5859375 C-32.85166016 127.60205078 -31.87519531 127.61816406 -30.86914062 127.63476562 C-24.28844181 127.63922712 -19.78918786 126.97964166 -14.71875 122.44140625 C-14.15671875 121.78785156 -13.5946875 121.13429687 -13.015625 120.4609375 C-12.15710938 119.49220703 -12.15710938 119.49220703 -11.28125 118.50390625 C-7.90034502 113.52839918 -7.45706658 108.39901461 -7.46484375 102.53125 C-7.45841606 101.44044632 -7.45841606 101.44044632 -7.45185852 100.3276062 C-7.4461426 98.79637691 -7.44559466 97.26512048 -7.44995117 95.73388672 C-7.45310663 93.41195515 -7.42963516 91.09130529 -7.40429688 88.76953125 C-7.40202287 87.27343909 -7.40132085 85.77734354 -7.40234375 84.28125 C-7.393134 83.59765411 -7.38392426 82.91405823 -7.37443542 82.20974731 C-7.43087516 76.22275571 -8.83169949 70.90394282 -12.4140625 66.03125 C-12.98382812 65.49242188 -13.55359375 64.95359375 -14.140625 64.3984375 C-14.70523438 63.84414062 -15.26984375 63.28984375 -15.8515625 62.71875 C-21.34939018 58.5673291 -27.12294535 58.9393064 -33.703125 58.9609375 C-34.67958984 58.94482422 -35.65605469 58.92871094 -36.66210938 58.91210938 C-44.23284001 58.90697668 -49.36709163 60.11915611 -54.515625 66.0234375 Z " fill="#8333BA" transform="translate(649.765625,38.7265625)"/>
<path d="M0 0 C1.2890625 -0.01546875 2.578125 -0.0309375 3.90625 -0.046875 C16.17099615 0.00298169 24.89529799 2.46383265 33.7734375 11.07421875 C44.15244356 22.38187272 45.45673873 33.56469422 45.36328125 48.27734375 C45.36276187 49.89636739 45.36328259 51.51539166 45.36479187 53.13441467 C45.36470261 56.5090591 45.35436144 59.88346229 45.33618164 63.25805664 C45.31336805 67.58813664 45.31297823 71.91786878 45.31969929 76.24799252 C45.32303363 79.58249521 45.31642144 82.91691813 45.30657005 86.25140572 C45.30271806 87.8490412 45.30156984 89.44668554 45.3031559 91.04432487 C45.30352542 93.26792367 45.29094305 95.4910688 45.2746582 97.71459961 C45.26774712 99.61247475 45.26774712 99.61247475 45.26069641 101.5486908 C45 104.5 45 104.5 43 106.5 C40.41935871 106.64497985 37.95056116 106.68677545 35.375 106.625 C34.31539062 106.61146484 34.31539062 106.61146484 33.234375 106.59765625 C31.48943902 106.57407603 29.74467705 106.53820461 28 106.5 C27.34 105.18 26.68 103.86 26 102.5 C25.37996094 102.78294922 24.75992188 103.06589844 24.12109375 103.35742188 C16.00555159 106.718225 8.71295534 107.10455546 0 107 C-1.2890625 107.01546875 -2.578125 107.0309375 -3.90625 107.046875 C-16.17099615 106.99701831 -24.89529799 104.53616735 -33.7734375 95.92578125 C-42.11568229 86.83712508 -45.47442412 77.64299013 -45.43359375 65.3828125 C-45.4388356 64.44500946 -45.44407745 63.50720642 -45.44947815 62.54098511 C-45.45586254 60.56948836 -45.45460818 58.59795333 -45.44604492 56.62646484 C-45.43754156 53.63959657 -45.46633645 50.6546485 -45.49804688 47.66796875 C-45.5542979 32.48312881 -43.64793002 21.70531613 -33 10.37109375 C-23.35768883 1.02149559 -13.04975789 -0.15659709 0 0 Z M-20.75 26.3125 C-21.60851562 27.28123047 -21.60851562 27.28123047 -22.484375 28.26953125 C-25.85148279 33.2247337 -26.31692825 38.3606535 -26.3359375 44.20703125 C-26.3425943 44.93186203 -26.3492511 45.65669281 -26.35610962 46.40348816 C-26.36618786 47.93050621 -26.37092814 49.45756787 -26.37060547 50.98461914 C-26.37496855 53.29584021 -26.41130718 55.60513287 -26.44921875 57.91601562 C-26.520736 67.06713263 -26.1469039 74.66061887 -19.96484375 81.875 C-19.29582031 82.41125 -18.62679687 82.9475 -17.9375 83.5 C-17.26589844 84.056875 -16.59429687 84.61375 -15.90234375 85.1875 C-11.17004609 88.45249387 -5.69945831 87.72149601 -0.1875 87.75 C0.79798828 87.770625 1.78347656 87.79125 2.79882812 87.8125 C9.4341996 87.84815008 13.92994772 87.24781397 19.046875 82.66796875 C19.60890625 82.01441406 20.1709375 81.36085937 20.75 80.6875 C21.60851562 79.71876953 21.60851562 79.71876953 22.484375 78.73046875 C25.85148279 73.7752663 26.31692825 68.6393465 26.3359375 62.79296875 C26.3425943 62.06813797 26.3492511 61.34330719 26.35610962 60.59651184 C26.36618786 59.06949379 26.37092814 57.54243213 26.37060547 56.01538086 C26.37496855 53.70415979 26.41130718 51.39486713 26.44921875 49.08398438 C26.520736 39.93286737 26.1469039 32.33938113 19.96484375 25.125 C19.29582031 24.58875 18.62679687 24.0525 17.9375 23.5 C17.26589844 22.943125 16.59429687 22.38625 15.90234375 21.8125 C11.17004609 18.54750613 5.69945831 19.27850399 0.1875 19.25 C-0.79798828 19.229375 -1.78347656 19.20875 -2.79882812 19.1875 C-10.45918762 19.14634293 -15.57438925 20.29407191 -20.75 26.3125 Z " fill="#F78800" transform="translate(174,78.5)"/>
<path d="M0 0 C1.94616211 -0.02320312 1.94616211 -0.02320312 3.93164062 -0.046875 C16.55926425 0.00432672 25.42179077 3.42848163 34.58984375 12.0546875 C44.10345285 22.17348802 45.13224311 33.91860439 45.1875 47.125 C45.208125 48.36507812 45.22875 49.60515625 45.25 50.8828125 C45.25773438 52.66171875 45.25773438 52.66171875 45.265625 54.4765625 C45.2749707 55.56018066 45.28431641 56.64379883 45.29394531 57.76025391 C44.9375 60.5 44.9375 60.5 43.8266449 62.14994812 C41.01965737 64.15592384 38.77789796 63.85955858 35.35473633 63.84057617 C34.69105545 63.84101425 34.02737457 63.84145233 33.34358215 63.84190369 C31.15193161 63.83981519 28.96104799 63.81648268 26.76953125 63.79296875 C25.2492464 63.78737298 23.72895614 63.78310279 22.20866394 63.78010559 C18.20872035 63.76865524 14.20910394 63.73918672 10.20928955 63.70599365 C6.1272016 63.67529669 2.04506075 63.66160107 -2.03710938 63.64648438 C-10.04572301 63.61431695 -18.05407079 63.5631186 -26.0625 63.5 C-25.77255053 65.26417304 -25.47401917 67.02693704 -25.171875 68.7890625 C-25.00655273 69.77084473 -24.84123047 70.75262695 -24.67089844 71.76416016 C-23.25861074 78.11492098 -19.10549473 81.82281634 -14.0625 85.5 C-9.55142956 87.13657439 -4.48339638 86.84512677 0.26953125 87.01757812 C5.72216655 87.28466655 5.72216655 87.28466655 7.9375 89.5 C8.13599071 92.04535141 8.21601775 94.45716759 8.1875 97 C8.19910156 98.03447266 8.19910156 98.03447266 8.2109375 99.08984375 C8.19083293 104.24666707 8.19083293 104.24666707 5.9375 106.5 C-5.78105297 108.21927975 -19.00320821 107.67543386 -28.7265625 100.546875 C-37.30676617 93.3081191 -43.98603897 84.4866106 -45.35322571 73.07293701 C-45.47155303 70.5052644 -45.50465392 67.95318382 -45.49609375 65.3828125 C-45.5013356 64.44500946 -45.50657745 63.50720642 -45.51197815 62.54098511 C-45.51836254 60.56948836 -45.51710818 58.59795333 -45.50854492 56.62646484 C-45.50004156 53.63959657 -45.52883645 50.6546485 -45.56054688 47.66796875 C-45.6167979 32.48312881 -43.71043002 21.70531613 -33.0625 10.37109375 C-23.4014095 1.00328636 -13.07358337 -0.15633583 0 0 Z M-22.58203125 28.45703125 C-26.50565125 33.8714198 -26.0625 37.66668006 -26.0625 44.5 C-8.9025 44.5 8.2575 44.5 25.9375 44.5 C25.01916427 34.39830692 24.3654994 29.70659943 17.4375 23.125 C11.50906649 19.27151822 6.40580816 19.1636375 -0.5 19.1875 C-1.42876953 19.17138672 -2.35753906 19.15527344 -3.31445312 19.13867188 C-12.1877889 19.13235633 -16.95482184 21.63730064 -22.58203125 28.45703125 Z " fill="#8333BA" transform="translate(726.0625,78.5)"/>
<path d="M0 0 C1.92102539 -0.03577148 1.92102539 -0.03577148 3.88085938 -0.07226562 C15.77417506 -0.05408939 25.43243234 2.96883866 34.09375 11.33203125 C44.5471516 23.17507156 45.56073291 35.75080698 45.45361328 50.85742188 C45.43753572 53.55650378 45.45351763 56.25408867 45.47265625 58.953125 C45.49083602 73.13645949 43.83410372 84.75776642 34.09375 95.79296875 C25.43243234 104.15616134 15.77417506 107.17908939 3.88085938 107.19726562 C2.60017578 107.17341797 1.31949219 107.14957031 0 107.125 C-1.28455078 107.13595703 -2.56910156 107.14691406 -3.89257812 107.15820312 C-16.11608602 107.06470357 -24.86489899 104.56753447 -33.7109375 95.98828125 C-42.05318229 86.89962508 -45.41192412 77.70549013 -45.37109375 65.4453125 C-45.3763356 64.50750946 -45.38157745 63.56970642 -45.38697815 62.60348511 C-45.39336254 60.63198836 -45.39210818 58.66045333 -45.38354492 56.68896484 C-45.37504156 53.70209657 -45.40383645 50.7171485 -45.43554688 47.73046875 C-45.4917979 32.54562881 -43.58543002 21.76781613 -32.9375 10.43359375 C-23.33223955 1.11992156 -13.00528616 -0.1109332 0 0 Z M-20.75 26.375 C-21.59498047 27.34373047 -21.59498047 27.34373047 -22.45703125 28.33203125 C-25.77800785 33.33540233 -26.24605512 38.43940854 -26.23828125 44.3046875 C-26.24256638 45.03188995 -26.2468515 45.75909241 -26.25126648 46.5083313 C-26.2569824 48.03956059 -26.25753034 49.57081702 -26.25317383 51.10205078 C-26.25001837 53.42398235 -26.27348984 55.74463221 -26.29882812 58.06640625 C-26.30110213 59.56249841 -26.30180415 61.05859396 -26.30078125 62.5546875 C-26.309991 63.23828339 -26.31920074 63.92187927 -26.32868958 64.62619019 C-26.27223212 70.61506165 -24.85386185 75.89908183 -21.32421875 80.8046875 C-20.76347656 81.34351563 -20.20273437 81.88234375 -19.625 82.4375 C-19.07199219 82.99179688 -18.51898438 83.54609375 -17.94921875 84.1171875 C-12.49380449 88.03661134 -6.51053447 87.92791897 -0.0625 87.9375 C1.22720703 87.97423828 1.22720703 87.97423828 2.54296875 88.01171875 C9.54688103 88.04360302 14.86496756 86.50077305 20.0859375 81.703125 C20.53195312 81.07921875 20.97796875 80.4553125 21.4375 79.8125 C21.89898438 79.19890625 22.36046875 78.5853125 22.8359375 77.953125 C26.776801 70.27220633 26.39720746 62.11745202 26.375 53.6875 C26.39111328 52.47191406 26.40722656 51.25632812 26.42382812 50.00390625 C26.42913975 40.15615717 25.51471389 31.70919843 18.953125 24.03515625 C13.03048918 19.42186347 7.30081798 19.09026886 0.0625 19.1875 C-0.80117188 19.17589844 -1.66484375 19.16429688 -2.5546875 19.15234375 C-9.9669013 19.18613804 -15.7544205 20.44348055 -20.75 26.375 Z " fill="#8333BA" transform="translate(506.9375,78.4375)"/>
</svg>
